<?xml version="1.0" standalone="no"?>
<!DOCTYPE svg PUBLIC "-//W3C//DTD SVG 20010904//EN"
 "http://www.w3.org/TR/2001/REC-SVG-20010904/DTD/svg10.dtd">
<svg version="1.0" xmlns="http://www.w3.org/2000/svg"
 width="400.000000pt" height="400.000000pt" viewBox="0 0 400.000000 400.000000"
 preserveAspectRatio="xMidYMid meet">
<metadata>
Created by potrace 1.11, written by Peter Selinger 2001-2013
</metadata>
<g transform="translate(0.000000,400.000000) scale(0.100000,-0.100000)"
fill="#000000" stroke="none">
<path d="M0 3865 l0 -135 403 0 402 0 36 -63 c792 -1368 1153 -1987 1159
-1987 4 0 275 461 601 1025 l594 1025 403 0 402 0 0 135 0 135 -2000 0 -2000
0 0 -135z"/>
<path d="M0 1862 l0 -1862 2000 0 2000 0 0 1862 c0 1552 -2 1859 -13 1843 -8
-11 -456 -784 -997 -1717 -541 -934 -987 -1698 -990 -1698 -3 0 -449 764 -990
1698 -541 933 -989 1706 -997 1717 -11 16 -13 -291 -13 -1843z"/>
</g>
</svg>
